<?xml version="1.0" standalone="no"?>
<!DOCTYPE svg PUBLIC "-//W3C//DTD SVG 20010904//EN"
 "http://www.w3.org/TR/2001/REC-SVG-20010904/DTD/svg10.dtd">
<svg version="1.0" xmlns="http://www.w3.org/2000/svg"
 width="200.000000pt" height="60.000000pt" viewBox="0 0 200.000000 60.000000"
 preserveAspectRatio="xMidYMid meet">
<metadata>
Created by potrace 1.16, written by Peter Selinger 2001-2019
</metadata>
<g transform="translate(0.000000,60.000000) scale(0.100000,-0.100000)"
fill="#000000" stroke="none">
<path d="M690 506 c0 -71 4 -97 15 -106 12 -10 15 -9 15 4 0 16 18 17 194 14
174 -3 196 -5 215 -22 21 -19 21 -19 21 2 0 19 6 22 45 22 l44 0 3 -67 c3 -60
5 -68 23 -68 18 0 20 8 23 68 l3 67 44 0 c34 0 45 -4 45 -16 0 -14 2 -14 22 0
44 31 142 15 157 -26 l8 -22 11 21 c24 45 150 56 192 18 19 -17 20 -17 20 3 0
19 6 22 45 22 45 0 45 0 45 -35 0 -31 3 -35 25 -35 22 0 25 4 25 35 0 33 2 35
35 35 l35 0 0 90 0 90 -655 0 -655 0 0 -94z"/>
<path d="M210 505 c0 -24 2 -25 70 -25 l70 0 0 -180 0 -180 -70 0 c-68 0 -70
-1 -70 -25 l0 -25 195 0 195 0 0 25 c0 24 -2 25 -70 25 l-70 0 0 180 0 180 70
0 c68 0 70 1 70 25 l0 25 -195 0 -195 0 0 -25z"/>
<path d="M1880 220 c0 -29 -2 -30 -45 -30 -35 0 -45 4 -45 17 0 14 -2 14 -20
-2 -26 -24 -114 -29 -157 -8 -18 8 -33 20 -33 25 0 5 -14 -2 -31 -16 -39 -33
-113 -36 -150 -7 -22 17 -27 17 -44 5 -10 -8 -38 -14 -62 -14 -24 0 -43 -4
-43 -10 0 -6 50 -10 128 -11 70 0 147 -1 172 -2 l45 -2 0 -55 0 -55 -84 -2
c-50 -2 -90 2 -98 8 -9 8 -13 8 -13 1 0 -12 -669 -15 -687 -4 -5 4 -13 14 -16
22 -3 8 -6 -6 -6 -32 l-1 -48 655 0 655 0 0 95 0 95 -35 0 c-32 0 -35 2 -35
30 0 25 -4 30 -25 30 -21 0 -25 -5 -25 -30z"/>
</g>
</svg>
