<?xml version="1.0" standalone="no"?>
<!DOCTYPE svg PUBLIC "-//W3C//DTD SVG 20010904//EN"
 "http://www.w3.org/TR/2001/REC-SVG-20010904/DTD/svg10.dtd">
<svg version="1.0" xmlns="http://www.w3.org/2000/svg"
 width="1287.000000pt" height="388.000000pt" viewBox="0 0 1287.000000 388.000000"
 preserveAspectRatio="xMidYMid meet">
<metadata>
Created by potrace 1.16, written by Peter Selinger 2001-2019
</metadata>
<g transform="translate(0.000000,388.000000) scale(0.100000,-0.100000)"
fill="#000000" stroke="none">
<path d="M0 3710 l0 -170 175 0 175 0 0 170 0 170 -175 0 -175 0 0 -170z" fill="white"/>
<path d="M880 3710 l0 -170 175 0 175 0 0 170 0 170 -175 0 -175 0 0 -170z" fill="white"/>
<path d="M1330 3710 l0 -170 170 0 170 0 0 170 0 170 -170 0 -170 0 0 -170z" fill="white"/>
<path d="M1770 3710 l0 -170 170 0 170 0 0 170 0 170 -170 0 -170 0 0 -170z" fill="white"/>
<path d="M2210 3710 l0 -170 175 0 175 0 0 170 0 170 -175 0 -175 0 0 -170z" fill="white"/>
<path d="M2650 3710 l0 -170 175 0 175 0 0 170 0 170 -175 0 -175 0 0 -170z" fill="white"/>
<path d="M3090 3710 l0 -170 175 0 175 0 0 170 0 170 -175 0 -175 0 0 -170z" fill="white"/>
<path d="M3540 3710 l0 -170 170 0 170 0 0 170 0 170 -170 0 -170 0 0 -170z" fill="white"/>
<path d="M3980 3710 l0 -170 170 0 170 0 0 170 0 170 -170 0 -170 0 0 -170z" fill="white"/>
<path d="M440 3270 l0 -170 175 0 175 0 0 170 0 170 -175 0 -175 0 0 -170z" fill="white"/>
<path d="M880 3270 l0 -170 175 0 175 0 0 170 0 170 -175 0 -175 0 0 -170z" fill="white"/>
<path d="M3980 3270 l0 -170 170 0 170 0 0 170 0 170 -170 0 -170 0 0 -170z" fill="white"/>
<path d="M1330 2830 l0 -170 170 0 170 0 0 170 0 170 -170 0 -170 0 0 -170z" fill="white"/>
<path d="M1770 2830 l0 -170 170 0 170 0 0 170 0 170 -170 0 -170 0 0 -170z" fill="white"/>
<path d="M3090 2830 l0 -170 175 0 175 0 0 170 0 170 -175 0 -175 0 0 -170z" fill="white"/>
<path d="M3540 2830 l0 -170 170 0 170 0 0 170 0 170 -170 0 -170 0 0 -170z" fill="white"/>
<path d="M3980 2830 l0 -170 170 0 170 0 0 170 0 170 -170 0 -170 0 0 -170z" fill="white"/>
<path d="M9345 2574 c-166 -26 -304 -115 -362 -233 -25 -50 -28 -67 -28 -161
0 -88 4 -113 23 -155 62 -135 176 -193 436 -221 161 -17 216 -36 235 -82 18
-44 -2 -81 -61 -110 -105 -52 -296 -18 -328 58 l-12 30 -161 0 -160 0 6 -52
c9 -73 48 -147 110 -205 62 -59 104 -82 207 -114 64 -21 95 -24 210 -23 118 1
145 4 215 27 188 62 291 177 303 337 5 77 -15 161 -54 220 -54 82 -167 131
-357 156 -192 24 -248 39 -279 74 -32 34 -35 58 -13 100 30 59 154 94 244 70
50 -13 101 -58 101 -89 0 -20 5 -21 161 -21 l162 0 -7 52 c-27 200 -207 333
-466 343 -52 2 -108 1 -125 -1z" fill="white"/>
<path d="M10632 2551 c-234 -59 -410 -231 -463 -451 -19 -77 -16 -250 4 -329
82 -309 381 -490 747 -452 123 13 190 31 273 73 115 58 196 156 242 291 14 42
25 80 25 86 0 8 -58 11 -177 11 l-178 0 -28 -44 c-54 -86 -151 -136 -262 -136
-130 0 -230 62 -287 178 -30 60 -33 75 -33 157 0 117 21 178 86 249 63 69 129
99 224 100 43 0 90 -6 122 -17 61 -22 136 -85 164 -138 l19 -39 175 0 c105 0
175 4 175 10 0 29 -52 167 -80 210 -70 109 -197 198 -335 236 -94 25 -322 28
-413 5z" fill="white"/>
<path d="M442 2388 l3 -173 173 -3 172 -2 0 175 0 175 -175 0 -175 0 2 -172z" fill="white"/>
<path d="M884 2547 c-2 -7 -3 -85 -2 -172 l3 -160 173 -3 172 -2 0 175 0 175
-170 0 c-130 0 -172 -3 -176 -13z" fill="white"/>
<path d="M1330 2385 l0 -175 170 0 170 0 0 175 0 175 -170 0 -170 0 0 -175z" fill="white"/>
<path d="M1770 2385 l0 -175 170 0 170 0 0 175 0 175 -170 0 -170 0 0 -175z" fill="white"/>
<path d="M3092 2388 l3 -173 173 -3 172 -2 0 175 0 175 -175 0 -175 0 2 -172z" fill="white"/>
<path d="M3540 2385 l0 -175 170 0 170 0 0 175 0 175 -170 0 -170 0 0 -175z" fill="white"/>
<path d="M3980 1945 l0 -615 170 0 170 0 0 222 0 221 216 -221 216 -222 174 0
174 0 0 615 0 615 -170 0 -170 0 0 -222 -1 -223 -217 223 -217 223 -172 -1
-173 0 0 -615z" fill="white"/>
<path d="M5260 1945 l0 -615 170 0 170 0 0 220 0 219 148 3 147 3 0 170 0 170
-147 3 -148 3 0 44 0 45 235 0 235 0 0 175 0 175 -405 0 -405 0 0 -615z" fill="white"/>
<path d="M6250 1945 l0 -615 170 0 170 0 2 217 3 218 189 -218 188 -217 194 0
194 0 0 68 -1 67 -134 149 -133 149 36 29 c156 124 200 377 96 553 -33 58
-111 130 -171 160 -96 47 -161 55 -495 55 l-308 0 0 -615z m639 313 c62 -44
82 -145 43 -217 -32 -59 -68 -71 -214 -71 l-128 0 0 156 0 156 138 -4 c109 -2
142 -6 161 -20z" fill="white"/>
<path d="M7532 2108 l3 -453 31 -65 c38 -80 106 -148 195 -195 109 -57 173
-67 409 -63 192 3 210 5 279 30 139 51 235 137 283 255 22 57 23 66 26 501 l3
442 -175 0 -175 0 -3 -394 c-3 -383 -4 -395 -24 -423 -45 -60 -73 -68 -244
-68 -174 0 -203 9 -247 75 -23 33 -23 35 -23 421 l0 389 -170 0 -171 0 3 -452z" fill="white"/>
<path d="M11650 1945 l0 -615 170 0 170 0 0 220 0 220 270 0 270 0 0 -220 0
-220 170 0 170 0 0 615 0 615 -167 -2 -168 -3 -3 -222 -2 -223 -270 0 -270 0
0 225 0 225 -170 0 -170 0 0 -615z" fill="white"/>
<path d="M0 1945 l0 -175 175 0 175 0 -2 173 -3 172 -172 3 -173 2 0 -175z" fill="white"/>
<path d="M1770 1945 l0 -175 170 0 170 0 0 175 0 175 -170 0 -170 0 0 -175z" fill="white"/>
<path d="M3097 2113 c-4 -3 -7 -82 -7 -175 l0 -168 175 0 175 0 0 175 0 175
-168 0 c-93 0 -172 -3 -175 -7z" fill="white"/>
<path d="M3540 1945 l0 -175 170 0 170 0 0 175 0 175 -170 0 -170 0 0 -175z" fill="white"/>
<path d="M447 1674 c-4 -4 -7 -83 -7 -176 l0 -168 175 0 175 0 -2 173 -3 172
-166 3 c-91 1 -168 -1 -172 -4z" fill="white"/>
<path d="M887 1673 c-4 -3 -7 -82 -7 -175 l0 -168 175 0 175 0 0 175 0 175
-168 0 c-93 0 -172 -3 -175 -7z" fill="white"/>
<path d="M1330 1505 l0 -175 170 0 170 0 0 175 0 175 -170 0 -170 0 0 -175z" fill="white"/>
<path d="M1770 1505 l0 -175 170 0 170 0 0 175 0 175 -170 0 -170 0 0 -175z" fill="white"/>
<path d="M3097 1673 c-4 -3 -7 -82 -7 -175 l0 -168 175 0 175 0 0 175 0 175
-168 0 c-93 0 -172 -3 -175 -7z" fill="white"/>
<path d="M3540 1505 l0 -175 170 0 170 0 0 175 0 175 -170 0 -170 0 0 -175z" fill="white"/>
<path d="M0 1060 l0 -170 175 0 175 0 0 170 0 170 -175 0 -175 0 0 -170z" fill="white"/>
<path d="M880 1060 l0 -170 175 0 175 0 0 170 0 170 -175 0 -175 0 0 -170z" fill="white"/>
<path d="M1330 1060 l0 -170 170 0 170 0 0 170 0 170 -170 0 -170 0 0 -170z" fill="white"/>
<path d="M1770 1060 l0 -170 170 0 170 0 0 170 0 170 -170 0 -170 0 0 -170z" fill="white"/>
<path d="M3090 1060 l0 -170 175 0 175 0 0 170 0 170 -175 0 -175 0 0 -170z" fill="white"/>
<path d="M3540 1060 l0 -170 170 0 170 0 0 170 0 170 -170 0 -170 0 0 -170z" fill="white"/>
<path d="M3980 1060 l0 -170 170 0 170 0 0 170 0 170 -170 0 -170 0 0 -170z" fill="white"/>
<path d="M7580 845 l0 -385 45 0 45 0 0 385 0 385 -45 0 -45 0 0 -385z" fill="white"/>
<path d="M7858 1038 l-3 -53 -37 -3 c-37 -3 -38 -4 -38 -43 0 -39 0 -39 39
-39 l40 0 3 -169 c3 -154 5 -172 24 -198 34 -46 82 -73 130 -73 l44 0 0 40 c0
38 -2 40 -29 40 -17 0 -42 10 -58 24 l-28 24 -3 156 -3 156 60 0 61 0 0 40 0
40 -60 0 -60 0 0 55 0 55 -39 0 -40 0 -3 -52z" fill="white"/>
<path d="M4742 964 c-93 -46 -146 -134 -146 -244 0 -187 164 -310 345 -260 46
13 115 72 140 121 l19 39 -45 0 c-39 0 -50 -5 -72 -30 -35 -42 -74 -60 -128
-60 -74 0 -129 39 -160 112 -78 189 147 364 280 217 31 -34 40 -39 80 -39 l45
0 -19 38 c-25 48 -76 97 -123 116 -60 25 -155 21 -216 -10z" fill="white"/>
<path d="M5329 962 c-60 -31 -113 -93 -129 -150 -16 -59 -12 -162 9 -207 57
-125 189 -183 323 -143 50 15 123 79 150 131 29 58 35 151 13 217 -21 64 -84
136 -140 161 -64 29 -160 26 -226 -9z m212 -77 c108 -70 105 -266 -5 -330
-141 -82 -296 47 -256 214 30 127 157 183 261 116z" fill="white"/>
<path d="M5973 964 c-42 -24 -43 -25 -43 -5 0 18 -6 21 -45 21 l-45 0 0 -260
0 -260 44 0 45 0 3 189 3 190 29 30 c56 58 145 60 197 5 23 -25 24 -30 27
-220 l3 -194 45 0 46 0 -4 198 c-3 189 -4 199 -28 240 -36 63 -90 92 -171 92
-51 0 -73 -5 -106 -26z" fill="white"/>
<path d="M6514 971 c-109 -49 -124 -190 -26 -240 21 -11 79 -27 128 -36 105
-20 142 -37 150 -69 13 -54 -42 -96 -126 -96 -64 0 -116 24 -136 61 -12 25
-21 29 -54 29 -48 0 -51 -14 -15 -76 18 -31 39 -50 80 -70 50 -24 63 -26 139
-22 70 4 91 9 124 30 101 68 94 218 -13 263 -16 7 -70 21 -120 30 -108 20
-137 36 -133 72 5 41 47 66 113 66 61 0 101 -21 120 -61 8 -18 18 -22 52 -22
46 0 49 4 32 47 -14 38 -46 71 -91 94 -50 26 -167 26 -224 0z" fill="white"/>
<path d="M8292 969 c-23 -12 -59 -41 -80 -65 -155 -176 -37 -454 193 -454 150
0 260 115 259 270 -1 159 -109 270 -264 270 -46 0 -77 -6 -108 -21z m188 -74
c84 -43 123 -161 85 -253 -31 -73 -86 -112 -160 -112 -201 0 -241 306 -48 376
40 14 81 10 123 -11z" fill="white"/>
<path d="M8945 974 c-16 -8 -38 -23 -47 -31 -17 -15 -18 -14 -18 10 0 25 -3
27 -40 27 l-40 0 0 -260 0 -260 45 0 45 0 0 175 c0 204 6 225 73 256 23 10 52
19 65 19 19 0 22 5 22 40 0 40 0 40 -37 40 -21 0 -51 -7 -68 -16z" fill="white"/>
<path d="M9285 968 c-56 -29 -93 -65 -121 -120 -94 -184 31 -398 232 -398 100
0 162 29 215 103 40 55 38 67 -11 67 -34 0 -45 -6 -76 -39 -51 -58 -139 -72
-209 -33 -30 16 -72 64 -84 95 -23 59 -31 57 210 57 l221 0 -7 48 c-22 149
-124 243 -264 242 -46 -1 -78 -7 -106 -22z m163 -63 c56 -24 112 -86 112 -125
0 -6 -56 -10 -165 -10 -154 0 -165 1 -165 19 0 36 66 105 115 120 44 13 61 13
103 -4z" fill="white"/>
<path d="M9850 968 c-54 -28 -80 -62 -87 -115 -11 -87 41 -130 193 -158 135
-26 167 -49 145 -108 -14 -36 -60 -57 -126 -57 -66 0 -107 19 -132 60 -15 26
-23 30 -59 30 -43 0 -43 0 -34 -30 25 -88 109 -140 226 -140 137 0 224 76 211
186 -9 80 -54 111 -204 139 -106 20 -135 36 -131 72 5 41 47 66 112 66 61 0
100 -19 118 -59 9 -20 18 -24 56 -24 36 0 43 3 38 16 -3 9 -6 22 -6 29 0 24
-53 77 -95 96 -59 27 -168 26 -225 -3z" fill="white"/>
<path d="M6982 777 c3 -203 3 -204 31 -245 62 -95 211 -112 300 -34 16 14 17
13 17 -11 0 -25 3 -27 40 -27 l40 0 0 260 0 260 -39 0 -39 0 -4 -182 c-3 -160
-5 -187 -22 -211 -38 -57 -134 -78 -189 -42 -49 32 -57 67 -57 259 l0 176 -41
0 -40 0 3 -203z" fill="white"/>
<path d="M0 620 l0 -170 175 0 175 0 0 170 0 170 -175 0 -175 0 0 -170z" fill="white"/>
<path d="M440 620 l0 -170 175 0 175 0 0 170 0 170 -175 0 -175 0 0 -170z" fill="white"/>
<path d="M880 620 l0 -170 175 0 175 0 0 170 0 170 -175 0 -175 0 0 -170z" fill="white"/>
<path d="M3980 620 l0 -170 170 0 170 0 0 170 0 170 -170 0 -170 0 0 -170z" fill="white"/>
<path d="M442 178 l3 -173 173 -3 172 -2 0 175 0 175 -175 0 -175 0 2 -172z" fill="white"/>
<path d="M884 337 c-2 -7 -3 -85 -2 -172 l3 -160 173 -3 172 -2 0 175 0 175
-170 0 c-130 0 -172 -3 -176 -13z" fill="white"/>
<path d="M1330 175 l0 -175 170 0 170 0 0 175 0 175 -170 0 -170 0 0 -175z" fill="white"/>
<path d="M1770 175 l0 -175 170 0 170 0 0 175 0 175 -170 0 -170 0 0 -175z" fill="white"/>
<path d="M2210 175 l0 -175 173 2 172 3 3 173 2 172 -175 0 -175 0 0 -175z" fill="white"/>
<path d="M2652 178 l3 -173 173 -3 172 -2 0 175 0 175 -175 0 -175 0 2 -172z" fill="white"/>
<path d="M3092 178 l3 -173 173 -3 172 -2 0 175 0 175 -175 0 -175 0 2 -172z" fill="white"/>
<path d="M3540 175 l0 -175 170 0 170 0 0 175 0 175 -170 0 -170 0 0 -175z" fill="white"/>
<path d="M3980 175 l0 -175 170 0 170 0 0 175 0 175 -170 0 -170 0 0 -175z" fill="white"/>
</g>
</svg>
